REM DIRINDEX 1\2,1\4,1\3\5,1\3\6,1\3\7
REM DIRNAME folder01,folder02,folder03,folder04,folder05,folder06,folder07
TITLE ""
FILE "CD3Track24.mp3" MP3
  TRACK 01 AUDIO
    TITLE "0:"
    INDEX 01 00:00:00
  TRACK 02 AUDIO
    TITLE "5:cjc082_2747"
    INDEX 01 00:00:25
  TRACK 03 AUDIO
    TITLE "0:"
    INDEX 01 00:01:48
  TRACK 04 AUDIO
    TITLE "6:cjc082_2748"
    INDEX 01 00:02:20
  TRACK 05 AUDIO
    TITLE "0:"
    INDEX 01 00:05:26
  TRACK 06 AUDIO
    TITLE "5:cjc082_2749"
    INDEX 01 00:05:69
  TRACK 07 AUDIO
    TITLE "0:"
    INDEX 01 00:07:00
  TRACK 08 AUDIO
    TITLE "6:cjc082_2750"
    INDEX 01 00:07:56
  TRACK 09 AUDIO
    TITLE "0:"
    INDEX 01 00:09:00
  TRACK 10 AUDIO
    TITLE "5:cjc082_2751"
    INDEX 01 00:09:49
  TRACK 11 AUDIO
    TITLE "0:"
    INDEX 01 00:11:01
  TRACK 12 AUDIO
    TITLE "6:cjc082_2752"
    INDEX 01 00:11:46
  TRACK 13 AUDIO
    TITLE "0:"
    INDEX 01 00:12:63
  TRACK 14 AUDIO
    TITLE "5:cjc082_2753"
    INDEX 01 00:13:39
  TRACK 15 AUDIO
    TITLE "0:"
    INDEX 01 00:14:62
  TRACK 16 AUDIO
    TITLE "6:cjc082_2754"
    INDEX 01 00:15:36
  TRACK 17 AUDIO
    TITLE "0:"
    INDEX 01 00:18:19
  TRACK 18 AUDIO
    TITLE "5:cjc082_2755"
    INDEX 01 00:18:62
  TRACK 19 AUDIO
    TITLE "0:"
    INDEX 01 00:19:71
  TRACK 20 AUDIO
    TITLE "6:cjc082_2756"
    INDEX 01 00:20:49
  TRACK 21 AUDIO
    TITLE "0:"
    INDEX 01 00:22:62
  TRACK 22 AUDIO
    TITLE "5:cjc082_2757"
    INDEX 01 00:23:32
  TRACK 23 AUDIO
    TITLE "0:"
    INDEX 01 00:25:11
  TRACK 24 AUDIO
    TITLE "6:cjc082_2758"
    INDEX 01 00:25:58
  TRACK 25 AUDIO
    TITLE "0:"
    INDEX 01 00:28:00
  TRACK 26 AUDIO
    TITLE "5:cjc082_2759"
    INDEX 01 00:28:47
  TRACK 27 AUDIO
    TITLE "0:"
    INDEX 01 00:29:72
  TRACK 28 AUDIO
    TITLE "6:cjc082_2760"
    INDEX 01 00:30:40
  TRACK 29 AUDIO
    TITLE "0:"
    INDEX 01 00:31:41
  TRACK 30 AUDIO
    TITLE "5:cjc082_2761"
    INDEX 01 00:32:17
  TRACK 31 AUDIO
    TITLE "0:"
    INDEX 01 00:34:08
  TRACK 32 AUDIO
    TITLE "6:cjc082_2762"
    INDEX 01 00:34:59
  TRACK 33 AUDIO
    TITLE "0:"
    INDEX 01 00:36:25
  TRACK 34 AUDIO
    TITLE "5:cjc082_2763"
    INDEX 01 00:36:74
  TRACK 35 AUDIO
    TITLE "0:"
    INDEX 01 00:38:16
  TRACK 36 AUDIO
    TITLE "6:cjc082_2764"
    INDEX 01 00:38:71
  TRACK 37 AUDIO
    TITLE "0:"
    INDEX 01 00:41:20
  TRACK 38 AUDIO
    TITLE "5:cjc082_2765"
    INDEX 01 00:41:71
  TRACK 39 AUDIO
    TITLE "0:"
    INDEX 01 00:43:11
  TRACK 40 AUDIO
    TITLE "6:cjc082_2766"
    INDEX 01 00:43:70
  TRACK 41 AUDIO
    TITLE "0:"
    INDEX 01 00:46:51
  TRACK 42 AUDIO
    TITLE "5:cjc082_2767"
    INDEX 01 00:47:27
  TRACK 43 AUDIO
    TITLE "0:"
    INDEX 01 00:48:63
  TRACK 44 AUDIO
    TITLE "6:cjc082_2768"
    INDEX 01 00:49:41
  TRACK 45 AUDIO
    TITLE "0:"
    INDEX 01 00:51:54
  TRACK 46 AUDIO
    TITLE "5:cjc082_2769"
    INDEX 01 00:52:26
  TRACK 47 AUDIO
    TITLE "0:"
    INDEX 01 00:53:33
  TRACK 48 AUDIO
    TITLE "6:cjc082_2770"
    INDEX 01 00:54:07
  TRACK 49 AUDIO
    TITLE "0:"
    INDEX 01 00:56:25
  TRACK 50 AUDIO
    TITLE "5:cjc082_2771"
    INDEX 01 00:56:71
  TRACK 51 AUDIO
    TITLE "0:"
    INDEX 01 00:58:09
  TRACK 52 AUDIO
    TITLE "6:cjc082_2772"
    INDEX 01 00:58:62
  TRACK 53 AUDIO
    TITLE "0:"
    INDEX 01 01:00:08
  TRACK 54 AUDIO
    TITLE "5:cjc082_2773"
    INDEX 01 01:00:55
  TRACK 55 AUDIO
    TITLE "0:"
    INDEX 01 01:02:01
  TRACK 56 AUDIO
    TITLE "6:cjc082_2774"
    INDEX 01 01:02:54
  TRACK 57 AUDIO
    TITLE "0:"
    INDEX 01 01:04:35
  TRACK 58 AUDIO
    TITLE "7:cjc082_2775"
    INDEX 01 01:06:04
  TRACK 59 AUDIO
    TITLE "0:"
    INDEX 01 01:16:26
